<?xml version="1.0" standalone="no"?><!DOCTYPE svg PUBLIC "-//W3C//DTD SVG 1.1//EN" "http://www.w3.org/Graphics/SVG/1.1/DTD/svg11.dtd"><svg t="1708527513603" class="icon" viewBox="0 0 1024 1024" version="1.1" xmlns="http://www.w3.org/2000/svg" p-id="8395" xmlns:xlink="http://www.w3.org/1999/xlink" width="200" height="200"><path d="M321.355294 654.817882l33.972706-18.853647 130.529882 75.474824V525.492706L459.776 512 329.185882 433.874824v153.6l-28.732235 16.143058-109.628235-64.692706L60.235294 614.4v156.310588l130.590118 75.414588 130.529882-75.414588V654.757647z m399.540706-51.2l-26.081882-16.143058v-153.6l-156.672 91.557647v186.006588l130.529882-75.474824 33.972706 18.853647v115.892706l130.529882 75.414588L963.764706 770.710588V614.4l-130.590118-75.474824-112.278588 64.692706z m0-485.074823v123.964235l138.420706 78.185412V460.8l13.071059 8.071529L963.764706 522.842353V256l-242.868706-137.456941z m-78.305882 708.72847L512 900.035765l-130.590118-72.764236-20.841411 13.492706-86.196706 48.489412L512 1024l237.628235-134.746353-86.13647-48.489412-20.901647-13.492706zM164.683294 460.8V320.692706l138.420706-78.185412V118.543059L60.235294 256v266.782118l91.376941-53.910589 13.071059-8.071529zM355.388235 388.035765L512 479.653647l26.142118-16.143059L668.611765 388.035765 538.142118 312.621176v-18.853647l104.448-61.982117v-153.6L512 0 381.409882 78.125176v153.6l104.448 62.042353v18.793412L355.388235 388.035765z" p-id="8396"></path></svg>