<?xml version="1.0" standalone="no"?><!DOCTYPE svg PUBLIC "-//W3C//DTD SVG 1.1//EN" "http://www.w3.org/Graphics/SVG/1.1/DTD/svg11.dtd"><svg t="1708527773797" class="icon" viewBox="0 0 1024 1024" version="1.1" xmlns="http://www.w3.org/2000/svg" p-id="19500" xmlns:xlink="http://www.w3.org/1999/xlink" width="200" height="200"><path d="M227.13685333 929.10023111c-39.61287111 0-72.23523555-32.62236445-72.23523555-72.23523556V174.70805333c0-39.61287111 32.62236445-72.23523555 72.23523555-72.23523555h499.23868445c39.61287111 0 72.23523555 32.62236445 72.23523555 72.23523555v128.74183112c0 16.31118222-13.39847111 29.70965333-29.70965333 29.70965333s-29.70965333-13.39847111-29.70965333-29.70965333V174.70805333c0-6.99050667-5.82542222-12.81592889-12.81592889-12.81592888H227.13685333c-6.99050667 0-12.81592889 5.82542222-12.81592888 12.81592888v682.15694222c0 6.99050667 5.82542222 12.81592889 12.81592888 12.8159289h244.66773334c7.57304889 0 15.14609778 3.49525333 20.38897778 9.32067555s8.15559111 13.39847111 8.1555911 20.97152c-0.58254222 15.72864-12.81592889 28.54456889-29.1271111 29.12711111H227.13685333z"  p-id="19501"></path><path d="M298.20700445 304.61496889c-14.56355555 0-26.2144-11.65084445-26.2144-26.2144s11.65084445-26.2144 26.2144-26.2144h299.42670222c14.56355555 0 26.2144 11.65084445 26.2144 26.2144s-11.65084445 26.2144-26.2144 26.2144H298.20700445z m0 134.56725333c-14.56355555 0-26.2144-11.65084445-26.2144-26.2144s11.65084445-26.2144 26.2144-26.2144h194.56910222c14.56355555 0 26.2144 11.65084445 26.2144 26.2144S507.33966222 439.18222222 492.77610667 439.18222222H298.20700445z m0 135.14979556c-14.56355555 0-26.2144-11.65084445-26.2144-26.79694223 0-14.56355555 11.65084445-26.2144 26.2144-26.79694222H424.61866667c14.56355555 0 26.2144 11.65084445 26.2144 26.79694222 0 14.56355555-11.65084445 26.79694222-26.2144 26.79694223H298.20700445z m469.5290311 60.00184889c-67.57489778 0-122.91640889-55.34151111-122.91640888-122.91640889 0-67.57489778 55.34151111-122.91640889 122.91640888-122.91640889 67.57489778 0 122.91640889 55.34151111 122.9164089 122.91640889 0 68.15744-55.34151111 122.91640889-122.9164089 122.91640889z m0-192.82147556c-38.44778667 0-69.90506667 31.45728-69.90506666 69.90506667s31.45728 69.90506667 69.90506666 69.90506667 69.90506667-31.45728 69.90506667-69.90506667-31.45728-69.90506667-69.90506667-69.90506667zM950.07175111 945.99395555H585.40032c-14.56355555 0-26.2144-11.65084445-26.2144-26.2144V791.62026667c0-14.56355555 11.65084445-26.2144 26.2144-26.2144h364.67143111c14.56355555 0 26.2144 11.65084445 26.2144 26.2144V919.77955555c0.58254222 14.56355555-11.65084445 26.2144-26.2144 26.2144z m-338.45703111-52.4288h312.24263111v-75.14794666H611.61472v75.14794666z" p-id="19502"></path><path d="M641.90691555 816.66958222c-10.48576 0-20.38897778-6.99050667-23.8842311-17.47626667-4.07779555-12.81592889 3.49525333-26.79694222 16.31118222-30.87473777 90.29404445-27.96202667 71.07015111-150.87843555 69.90506666-156.12131556-2.33016889-13.39847111 6.99050667-26.2144 20.38897778-28.54456889 13.39847111-2.33016889 26.2144 6.99050667 28.54456889 20.38897778 9.90321778 58.83676445 1.16508445 178.84046222-104.27505778 211.46282667-2.33016889 0.58254222-4.66033778 1.16508445-6.99050667 1.16508444z m257.48366223 0c-2.33016889 0-4.66033778-0.58254222-7.57304889-1.16508444-105.44014222-32.62236445-114.17827555-152.62606222-104.27505778-211.46282667 2.33016889-13.39847111 15.14609778-22.71914667 28.54456889-20.38897778 13.39847111 2.33016889 22.71914667 15.14609778 20.38897778 28.54456889-0.58254222 5.24288-19.80643555 128.15928889 69.90506667 156.12131556 12.81592889 4.07779555 20.38897778 18.05880889 16.31118222 30.87473777-2.91271111 10.48576-12.81592889 17.47626667-23.30168889 17.47626667z" p-id="19503"></path></svg>