<?xml version="1.0" standalone="no"?><!DOCTYPE svg PUBLIC "-//W3C//DTD SVG 1.1//EN" "http://www.w3.org/Graphics/SVG/1.1/DTD/svg11.dtd"><svg t="1708769606000" class="icon" viewBox="0 0 1024 1024" version="1.1" xmlns="http://www.w3.org/2000/svg" p-id="14858" xmlns:xlink="http://www.w3.org/1999/xlink" width="200" height="200"><path d="M359.136 622.56l25.888-13.941333 99.562667 55.754666V526.933333l-19.914667-9.962666-99.562667-57.749334V572.8l-21.909333 11.946667-83.637333-47.797334L160 592.693333v115.498667l99.562667 55.765333 99.573333-55.765333z m304.682667-37.834667l-19.914667-11.946666V459.274667l-119.466667 67.701333v137.397333l99.562667-55.754666 25.888 13.941333v85.632l99.562667 55.765333 99.573333-55.765333V592.693333l-99.573333-55.765333z m0-358.4V317.866667l105.536 57.749333v103.552l9.962666 5.973333 69.696 39.829334V327.84z m-59.733334 523.733334l-99.562666 53.770666-99.562667-53.770666-15.936 9.962666-65.717333 35.84 181.216 99.562667 181.216-99.562667-65.717334-35.84z m-364.416-270.826667V375.68l105.546667-57.749333v-91.605334L160 327.84v197.141333l69.696-39.829333z m145.376-53.76l119.466667 67.701333 19.914667-11.946666 99.562666-55.754667-99.562666-55.765333v-13.941334l79.648-45.802666V196.416L504.533333 138.666667l-99.562666 57.749333v113.504l79.648 45.802667v13.941333z m0 0" fill="#1C87FF" p-id="14859"></path></svg>